<svg t="1584693176175" class="icon" viewBox="0 0 1024 1024" version="1.1" xmlns="http://www.w3.org/2000/svg" p-id="779" width="200" height="200"><path d="M884.184615 39.384615H139.815385C84.676923 39.384615 39.384615 84.676923 39.384615 139.815385v742.4C39.384615 939.323077 84.676923 984.615385 139.815385 984.615385h742.4c55.138462 0 100.430769-45.292308 100.430769-100.43077V139.815385c1.969231-55.138462-43.323077-100.430769-98.461539-100.43077zM309.169231 781.784615c0 17.723077-15.753846 33.476923-33.476923 33.476923h-33.476923c-17.723077 0-33.476923-15.753846-33.476923-33.476923v-185.107692c0-17.723077 15.753846-33.476923 33.476923-33.476923H275.692308c17.723077 0 33.476923 15.753846 33.476923 33.476923v185.107692z m169.353846 0c0 17.723077-15.753846 33.476923-33.476923 33.476923h-33.476923c-17.723077 0-33.476923-15.753846-33.476923-33.476923V342.646154c0-17.723077 15.753846-33.476923 33.476923-33.476923h33.476923c17.723077 0 33.476923 15.753846 33.476923 33.476923v439.138461z m169.353846 0c0 17.723077-15.753846 33.476923-33.476923 33.476923h-33.476923c-17.723077 0-33.476923-15.753846-33.476923-33.476923V242.215385c0-17.723077 15.753846-33.476923 33.476923-33.476923h33.476923c17.723077 0 33.476923 15.753846 33.476923 33.476923v539.56923z m167.384615 0c0 17.723077-15.753846 33.476923-33.476923 33.476923H748.307692c-17.723077 0-33.476923-15.753846-33.476923-33.476923V460.8c0-17.723077 15.753846-33.476923 33.476923-33.476923h33.476923c17.723077 0 33.476923 15.753846 33.476923 33.476923v320.984615z" p-id="780" fill="#1296db"></path></svg>
